<mxfile host="app.diagrams.net" agent="Mozilla/5.0 (Windows NT 10.0; Win64; x64) AppleWebKit/537.36 (KHTML, like Gecko) Chrome/136.0.0.0 Safari/537.36" version="27.0.5">
  <diagram name="Page-1" id="KfGDCcGDCfqZ9pJCkdgO">
    <mxGraphModel grid="0" page="1" gridSize="10" guides="1" tooltips="1" connect="1" arrows="1" fold="1" pageScale="1" pageWidth="850" pageHeight="1100" math="0" shadow="0">
      <root>
        <mxCell id="0" />
        <mxCell id="1" parent="0" />
        <mxCell id="X8-ucm__aRqcenFjC4mL-3" value="" style="edgeStyle=orthogonalEdgeStyle;rounded=0;orthogonalLoop=1;jettySize=auto;html=1;" edge="1" parent="1" source="X8-ucm__aRqcenFjC4mL-1">
          <mxGeometry relative="1" as="geometry">
            <mxPoint x="400" y="186" as="targetPoint" />
          </mxGeometry>
        </mxCell>
        <mxCell id="X8-ucm__aRqcenFjC4mL-1" value="&lt;b&gt;&lt;font style=&quot;font-size: 16px;&quot;&gt;User Request&lt;/font&gt;&lt;/b&gt;&lt;div&gt;&lt;b&gt;&lt;font style=&quot;font-size: 16px;&quot;&gt;(via /predict)&lt;/font&gt;&lt;/b&gt;&lt;/div&gt;" style="rounded=0;whiteSpace=wrap;html=1;" vertex="1" parent="1">
          <mxGeometry x="340" y="106" width="120" height="60" as="geometry" />
        </mxCell>
        <mxCell id="X8-ucm__aRqcenFjC4mL-5" value="&lt;div&gt;&lt;font style=&quot;font-size: 16px;&quot;&gt;&lt;b&gt;FastAPI App&amp;nbsp; &amp;nbsp; &amp;nbsp;&amp;nbsp;&lt;/b&gt;&lt;/font&gt;&lt;/div&gt;&lt;div&gt;&lt;span style=&quot;font-size: 16px; background-color: transparent; color: light-dark(rgb(0, 0, 0), rgb(255, 255, 255));&quot;&gt;&lt;b&gt;&amp;nbsp; (app.py + criptos.py)&lt;/b&gt;&lt;/span&gt;&lt;/div&gt;" style="rounded=0;whiteSpace=wrap;html=1;" vertex="1" parent="1">
          <mxGeometry x="290" y="196" width="220" height="60" as="geometry" />
        </mxCell>
        <mxCell id="X8-ucm__aRqcenFjC4mL-9" value="" style="endArrow=classic;html=1;rounded=0;" edge="1" parent="1">
          <mxGeometry width="50" height="50" relative="1" as="geometry">
            <mxPoint x="400" y="286" as="sourcePoint" />
            <mxPoint x="400" y="286" as="targetPoint" />
            <Array as="points">
              <mxPoint x="400" y="266" />
            </Array>
          </mxGeometry>
        </mxCell>
        <mxCell id="X8-ucm__aRqcenFjC4mL-10" value="&lt;b style=&quot;font-size: 16px;&quot;&gt;Input Validation (Pydantic)&lt;/b&gt;" style="rounded=0;whiteSpace=wrap;html=1;" vertex="1" parent="1">
          <mxGeometry x="290" y="296" width="220" height="60" as="geometry" />
        </mxCell>
        <mxCell id="X8-ucm__aRqcenFjC4mL-12" value="" style="endArrow=classic;html=1;rounded=0;" edge="1" parent="1">
          <mxGeometry width="50" height="50" relative="1" as="geometry">
            <mxPoint x="563" y="325.5" as="sourcePoint" />
            <mxPoint x="533" y="325.5" as="targetPoint" />
          </mxGeometry>
        </mxCell>
        <mxCell id="X8-ucm__aRqcenFjC4mL-13" value="Cripto model" style="text;whiteSpace=wrap;fontStyle=1;fontSize=16;" vertex="1" parent="1">
          <mxGeometry x="566" y="309" width="110" height="40" as="geometry" />
        </mxCell>
        <mxCell id="X8-ucm__aRqcenFjC4mL-14" value="&lt;span style=&quot;font-size: 16px;&quot;&gt;&lt;b&gt;Load ML Model (Pickle)&lt;/b&gt;&lt;/span&gt;" style="rounded=0;whiteSpace=wrap;html=1;" vertex="1" parent="1">
          <mxGeometry x="290" y="386" width="220" height="60" as="geometry" />
        </mxCell>
        <mxCell id="X8-ucm__aRqcenFjC4mL-16" value="" style="endArrow=classic;html=1;rounded=0;" edge="1" parent="1">
          <mxGeometry width="50" height="50" relative="1" as="geometry">
            <mxPoint x="563" y="419.5" as="sourcePoint" />
            <mxPoint x="533" y="419.5" as="targetPoint" />
          </mxGeometry>
        </mxCell>
        <UserObject label="trained_model.pkl" link="trained_model.pkl" id="X8-ucm__aRqcenFjC4mL-18">
          <mxCell style="text;whiteSpace=wrap;fontSize=16;fontStyle=1" vertex="1" parent="1">
            <mxGeometry x="569" y="403" width="150" height="40" as="geometry" />
          </mxCell>
        </UserObject>
        <mxCell id="X8-ucm__aRqcenFjC4mL-20" value="" style="edgeStyle=orthogonalEdgeStyle;rounded=0;orthogonalLoop=1;jettySize=auto;html=1;" edge="1" parent="1">
          <mxGeometry relative="1" as="geometry">
            <mxPoint x="400" y="361" as="sourcePoint" />
            <mxPoint x="400" y="381" as="targetPoint" />
          </mxGeometry>
        </mxCell>
        <mxCell id="X8-ucm__aRqcenFjC4mL-21" value="&lt;span style=&quot;font-size: 16px;&quot;&gt;&lt;b&gt;Model Prediction&lt;/b&gt;&lt;/span&gt;" style="rounded=0;whiteSpace=wrap;html=1;" vertex="1" parent="1">
          <mxGeometry x="290" y="476" width="220" height="60" as="geometry" />
        </mxCell>
        <mxCell id="X8-ucm__aRqcenFjC4mL-22" value="" style="edgeStyle=orthogonalEdgeStyle;rounded=0;orthogonalLoop=1;jettySize=auto;html=1;" edge="1" parent="1">
          <mxGeometry relative="1" as="geometry">
            <mxPoint x="398" y="453" as="sourcePoint" />
            <mxPoint x="398" y="473" as="targetPoint" />
          </mxGeometry>
        </mxCell>
        <mxCell id="X8-ucm__aRqcenFjC4mL-25" value="&lt;span style=&quot;font-size: 16px;&quot;&gt;&lt;b&gt;Response&lt;/b&gt;&lt;/span&gt;" style="rounded=0;whiteSpace=wrap;html=1;" vertex="1" parent="1">
          <mxGeometry x="290" y="566" width="220" height="60" as="geometry" />
        </mxCell>
        <mxCell id="X8-ucm__aRqcenFjC4mL-26" value="" style="edgeStyle=orthogonalEdgeStyle;rounded=0;orthogonalLoop=1;jettySize=auto;html=1;" edge="1" parent="1">
          <mxGeometry relative="1" as="geometry">
            <mxPoint x="396" y="543" as="sourcePoint" />
            <mxPoint x="396" y="563" as="targetPoint" />
          </mxGeometry>
        </mxCell>
        <mxCell id="j5oQGpcEXRqfpxCZIbhP-2" value="Pipeline Architecture Diagram" style="text;html=1;align=center;verticalAlign=middle;whiteSpace=wrap;rounded=0;fontStyle=1;fontSize=16;" vertex="1" parent="1">
          <mxGeometry x="281" y="39" width="249" height="30" as="geometry" />
        </mxCell>
      </root>
    </mxGraphModel>
  </diagram>
</mxfile>
